<svg xmlns="http://www.w3.org/2000/svg" data-name="Layer 1" width="959.2822875976562" height="685.9553833007812" style=""><rect id="backgroundrect" width="100%" height="100%" x="0" y="0" fill="none" stroke="none"/><title>stand_out</title><g class="currentLayer" style=""><title>Layer 1</title><path d="M746.7036737988282,311.06994927978513 c-1.79371,-4.61268 0.7688100000000001,-6.9190000000000005 1.7938900000000002,-11.01912 S746.1911437988281,283.1376992797852 746.1911437988281,283.1376992797852 s-10.76281,-44.33285 -14.09414,-53.04564 c-1.40974,-3.6870000000000003 -4.47141,-6.22337 -7.5346400000000004,-7.92661 c-0.20773000000000003,-1.131 -0.50785,-1.86044 -0.9219200000000001,-2.06752 c-2.96824,-1.48525 -10.36283,-4.7098 -15.29076,-5.60131 a25.0035,25.0035 0 0 0 -3.2584400000000002,-4.40639 a10.416,10.416 0 0 0 1.161,-5.39415 c-0.31400000000000006,-4.83476 -3.9754899999999997,-9.16717 -3.49914,-13.988620000000001 c0.36127000000000004,-3.6566300000000003 3.03444,-6.66045 4.06613,-10.18708 a11.97917,11.97917 0 0 0 -1.36155,-9.44679 q1.13716,1.20964 2.27416,2.41925 a8.49774,8.49774 0 0 0 -0.6340700000000001,-10.26749 c-2.4002,-2.65152 -6.414,-3.646 -8.27622,-6.69951 c-1.9135,-3.1377 -0.88651,-7.40129 -2.69606,-10.60014 c-4.43279,-7.8363700000000005 -15.78112,-2.28133 -22.57836,-5.01644 c-2.79331,-1.124 -4.91662,-2.361 -8.05936,-2.27216 a31.49047,31.49047 0 0 0 -7.86147,1.46812 a16.60916,16.60916 0 0 0 -9.00972,6.4582 a5.57887,5.57887 0 0 1 0.7038300000000001,-0.6728200000000002 c1.6471400000000003,-1.29074 4.5357,-1.18327 5.4055,0.7200000000000001 a3.18861,3.18861 0 0 1 0.25375,1.52035 c-0.14292000000000002,2.29447 -2.14724,4.00789 -4.13885,5.15611 s-4.23246,2.10887 -5.53225,4.005 c-2.14523,3.12917 -0.8838100000000001,7.32856 -0.8827600000000001,11.12246 a16.124,16.124 0 0 1 -6.11072,12.5203 l7.231,-2.9562 a54.65,54.65 0 0 0 -6.678,19.58333 l9.777,-8.07711 a42.99171,42.99171 0 0 0 -6.42136,19.0838 l7.84772,-8.04114 a3.96845,3.96845 0 0 1 0.5178400000000001,2.06429 l-0.8183900000000001,3.15644 a20.50769,20.50769 0 0 1 -0.9601900000000001,1.83208 c-1.26282,2.16846 -2.56844,4.83755 -1.3873000000000002,7.05159 l0.005570000000000001,-0.002950000000000001 c-1.24316,4.18287 -3.11856,8.36822 -7.29073,10.40215 c4.62765,0.48418000000000005 9.457370000000001,-1.8296400000000002 11.5471,-5.51232 a10.30975,10.30975 0 0 0 1.22759,1.8603900000000002 c0.13449000000000003,0.16819000000000003 0.26706,0.3351200000000001 0.3998100000000001,0.50223 l-1.1532200000000001,0.7688100000000001 l-3.09046,2.06034 s-20.24453,4.10014 -18.96327,11.78793 c0.05272000000000001,0.31625000000000003 0.11587000000000001,0.6936500000000002 0.18700000000000003,1.11707 l-5.8247,9.902 l-8.45647,28.701 s-4.35642,9.22537 -3.5876900000000003,13.06924 s0,5.38145 0,12.30043 s-3.3313800000000002,9.73786 0,15.37554 s13.32542,22.03829 13.32542,22.03829 l2.19525,1.6464400000000001 a10.256,10.256 0 0 0 0.11118000000000001,2.96624 c2.05,10.25036 21.26952,108.39761 21.26952,108.39761 s-9.7379,77.64649 9.994,82.5154 c2.47484,0.6106600000000001 4.90514,1.16474 7.266,1.6580000000000001 l2.98442,19.61151 l-1.7938900000000002,24.85713 s-13.58169,30.75107 11.27543,32.54492 s13.5817,-26.651 13.5817,-26.651 a13.51031,13.51031 0 0 0 1.53761,-7.944 c-0.25348000000000004,-2.28125 -2.3872400000000003,-14.152 -4.47958,-25.56935 c9.43335,-1.13117 7.66826,-11.14274 6.41126,-15.54465 a2.54913,2.54913 0 0 0 1.1433900000000001,-1.425 c0.28393,-1.02225 -0.37719,-5.04349 -1.5767700000000002,-10.67878 c-0.9770599999999999,-5.602 -2.6467300000000002,-14.67092 -3.78576,-20.81422 l6.13134,0.9981599999999999 l25.8822,-151.70538 s0.17068,-2.41508 0.09273000000000003,-5.94732 a96.0791,96.0791 0 0 1 10.92635,-4.81558 c8.45656,-3.3313800000000002 11.78789,-15.63181 14.606770000000001,-20.757 S748.4975637988281,315.68262927978515 746.7036737988282,311.06994927978513 zm-91.8956,-96.59119 a5.48186,5.48186 0 0 1 2.83489,-0.9614900000000001 c-0.21900000000000003,1.1919300000000002 -2.26894,1.54023 -3.9878400000000003,2.1644200000000002 A5.07424,5.07424 0 0 1 654.8080737988281,214.47875927978515 zm-12.91431,76.3467 c2.07617,3.41093 -1.6828100000000001,12.6537 -5.0701600000000004,19.98853 c-1.9412500000000001,-1.6726300000000003 -3.967,-1.14526 -1.5926,-5.89425 a24.10832,24.10832 0 0 0 2.8188,-9.73786 c0,-0.5860000000000001 0.30046000000000006,-4.89123 2.8254,-6.6797200000000005 A13.48411,13.48411 0 0 0 641.8937637988281,290.82545927978515 zm-7.77726,29.43893 c1.17487,-0.47822000000000003 2.954,-1.2128 5.3567,-2.02984 c-1.15113,1.51082 -2.46536,3.3108400000000002 -3.78716,5.27575 A3.96917,3.96917 0 0 1 634.1165037988281,320.2643892797852 zm83.11736,3.36226 c-1.558,-1.65536 -2.8168800000000003,-3.136 -3.85326,-4.46084 q2.89934,0.7630700000000001 5.90342,1.6420000000000001 a7.02461,7.02461 0 0 0 2.98581,-0.19894000000000006 c0.08891000000000002,1.7715299999999998 0.08926000000000003,4.29909 0.08926000000000003,4.29909 l-2.8067900000000003,1.94312 A16.4625,16.4625 0 0 0 717.2338637988281,323.62669927978516 zm7.95254,-8.88737 c-0.029920000000000006,0.026000000000000006 -0.06211000000000002,0.05600000000000001 -0.09290000000000002,0.08334000000000001 a16.99686,16.99686 0 0 0 -0.6843400000000002,-2.9839 c-1.67941,-5.29664 -2.57679,-14.69424 -3.05428,-22.71389 l4.84808,16.3074 S726.4592337988281,313.63251927978513 725.1864037988281,314.73927927978514 z" fill="#d0cde1" id="svg_1"/><path d="M625.6439937988281,247.38349927978516 s-26.29048,-45.18676 -27.11206,-50.11622 S584.5651437988281,183.30045927978517 584.5651437988281,183.30045927978517 c-4.4913,-4.49129 -11.86012,-5.9124099999999995 -19.61536,-5.83849 c2.9204499999999998,-2.416 -7.50653,-4.04009 -8.31827,-5.66359 c-0.82158,-1.64316 -3.2863100000000003,-1.64316 -6.572620000000001,-4.10789 c-3.28611,-2.46458 -11.4889,-0.41100000000000003 -11.4898,-0.41079 a30.275,30.275 0 0 1 -2.54863,-8.188 a22.90678,22.90678 0 0 0 5.41186,-14.81612 c0,-0.05900000000000001 -0.004000000000000001,-0.11700000000000002 -0.004460000000000001,-0.17591000000000004 c0.2091,0.32549000000000006 0.41826,0.6529400000000002 0.6275700000000001,0.9903599999999999 c1.53895,-9.21888 4.25571,-16.8819 -0.92217,-25.29164 a28.35654,28.35654 0 0 0 -16.13028,-12.33123 l-4.93167,3.94532 l1.9173499999999999,-4.60177 a26.10421,26.10421 0 0 0 -4.87431,-0.28171 l-4.43724,5.70506 l1.8365200000000002,-5.50965 a28.08546,28.08546 0 0 0 -19.374670000000002,11.5246 c-5.64754,8.14322 -5.26955,19.46282 0.28500000000000003,27.66972 c0.0187,-0.05747000000000001 0.033440000000000004,-0.11373000000000003 0.051850000000000014,-0.1711 a22.9969,22.9969 0 0 0 11.754,18.62154 l1.39524,11.16225 v0 a7.651120000000001,7.651120000000001 0 0 1 -4.57449,2.01809 c-2.46473,0 -4.92946,6.572620000000001 -4.92946,6.572620000000001 s-1.3969,0.7050000000000001 -2.9025,4.03282 c-3.87843,2.64034 -15.70886,10.93424 -20.09811,16.73 c-2.59652,1.2778 -5.38569,4.11987 -4.933,10.45716 c0.82158,11.50209 0,64.90462 0,64.90462 s-7.39419,45.18676 -4.92946,48.47307 s-0.82158,13.96681 -0.82158,13.96681 l2.46473,0.5477400000000001 v2.73857 s-7.4134,34.36585 4.10789,32.8631 c18.89628,-2.46473 4.92946,-30.39836 4.92946,-30.39836 v-3.19505 l3.2863100000000003,0.73031 s1.64316,-11.50208 4.92947,-12.32366 c1.14306,-0.28577 2.48469,-3.35676 3.7487500000000002,-7.23814 c0.7370800000000001,6.05527 1.18071,9.70287 1.18071,9.70287 l5.14073,-1.1424 l1.43189,5.25029 a7.08643,7.08643 0 0 0 1.1041,0.50015 l-1.1041,6.07247 s-0.82157,6.572620000000001 0,10.68051 c0.41435000000000005,2.07169 15.66488,46.35348 30.68184,89.74354 l-0.28347000000000006,10.4889 s-7.3942,8.21578 -5.751,13.96682 s-4.10789,53.40253 -4.10789,53.40253 l-4.92947,23.82575 l1.24034,0.38165000000000004 l-1.13859,4.17483 a8.28506,8.28506 0 0 0 -2.56648,2.01614 c-6.572620000000001,7.39419 -14.78839,28.75521 -14.78839,28.75521 s-14.7884,22.18259 8.21577,21.361 s24.64733,-9.03735 24.64733,-9.03735 s3.2863,-21.361 3.2863,-22.18259 s-1.64315,-9.267 -1.64315,-9.267 l-0.6381000000000001,-0.7037800000000001 l0.44559000000000004,-10.24866 l4.3004,1.32318 s4.10788,-21.361 7.39419,-23.82575 c1.14853,-0.8613900000000001 4.20432,-10.457 7.69312,-22.782 c3.5660600000000002,10.268 7.01956,45.77245 8.1401,48.99508 a11.66829,11.66829 0 0 0 -1.04482,1.72057 a199.63573,199.63573 0 0 1 -12.32366,20.53944 s-26.29048,15.61 0,19.71786 c0,0 14.78839,0.82158 22.18259,-4.10789 s27.11205,-12.32366 27.11205,-13.96681 s-4.92946,-25.79756 -9.85893,-23.1685 h0 l-3.30215,-7.59478 l3.30215,-1.27824 l-20.80019,-93.36382 a47.14063,47.14063 0 0 0 1.08233,-6.04705 c0,-4.3023 10.63809,-88.07723 13.34522,-109.32591 c11.91428,3.37546 22.80419,-21.3049 22.80419,-21.3049 l2.70082,-4.8615200000000005 l3.8718000000000004,2.39678 s3.2863100000000003,-8.21577 8.21577,-9.03735 s13.96682,-44.36518 13.96682,-50.11622 A26.74193,26.74193 0 0 0 625.6439937988281,247.38349927978516 zM587.3651437988282,311.7532192797851 a22.13835,22.13835 0 0 0 -2.8,-3.573 a101.74878,101.74878 0 0 0 4.92946,-17.25312 c1.64316,-9.03736 -2.46473,-38.61414 -2.46473,-38.61414 l-0.07181,-2.00867 c4.03237,5.29342 9.10916,12.35064 9.10916,14.33233 a6.16182,6.16182 0 0 0 2.46473,4.92946 l-4.92946,17.25313 s-3.2863100000000003,8.21577 -4.10789,12.32366 a41.936,41.936 0 0 0 -0.82158,7.3942 l1.16457,0.7208800000000001 z" fill="#d0cde1" id="svg_2" class=""/><path d="M249.52229379882812,262.59028927978517 l4.384,-0.9864099999999999 l-18.0747,-50.9378 l-39.02493,-14.3776 s-0.14948000000000003,0.16573000000000004 -0.42543000000000003,0.45145 c-3.32873,-3.22152 -4.74162,-7.89614 -5.33178,-11.57574 A22.997,22.997 0 0 0 201.77114379882812,151.39019927978518 c3.21575,-0.77188 4.36387,-3.6891700000000003 5.44315,-7.16789 a14.3931,14.3931 0 0 0 -2.03955,-0.4440800000000001 q0.7586400000000002,-1.701 1.51719,-3.402 q-1.33317,-0.11974000000000003 -2.6663200000000002,-0.23944000000000004 q0.3408900000000001,-1.5901 0.6817200000000002,-3.18025 q-1.70015,1.1736900000000001 -3.40024,2.34734 a6.94616,6.94616 0 0 0 -1.1579000000000002,-6.63164 a13.26745,13.26745 0 0 0 -5.68685,-4.0099 a25.37252,25.37252 0 0 0 -26.03635,4.55051 l-0.24566000000000002,-0.95742 a33.04449,33.04449 0 0 0 -12.62057,21.87054 c-1.08815,8.57351 3.03047,17.30322 8.38386,24.0878 c-0.04508000000000001,-0.29615 -0.09342000000000003,-0.59156 -0.14256000000000002,-0.8866100000000001 q0.3470000000000001,0.47823 0.7168800000000001,0.93811 l0.6580500000000001,25.00662 l-1.6481700000000001,1.41268 c-0.0026100000000000008,0.0011600000000000002 -27.65272,12.51066 -28.73054,27.45209 l-0.003160000000000001,0.010880000000000003 c-1.65965,7.27375 -2.48123,45.06631 -2.48123,45.06631 h2.27514 l-2.27514,14.7884 L117.52447379882813,349.5126992797852 s-18.89628,24.64732 -2.46473,29.57679 c10.21064,3.06321 13.12387,-8.78342 13.86672,-18.19325 c0.59157,2.3324000000000003 2.3609400000000003,3.90916 5.85114,4.22643 c0.27469,0.025000000000000005 0.5679400000000001,0.045730000000000014 0.8516100000000001,0.06875000000000002 c-7.76933,20.07815 -2.49477,85.3753 -2.49477,85.3753 c-4.10789,8.21578 44.36518,64.90462 44.36518,64.90462 l2.91875,-1.55666 l0.6316300000000001,1.26316 c-1.62436,0.15575000000000003 -2.7288,0.29350000000000004 -2.7288,0.29350000000000004 v25.4689 s-7.3942,25.4689 2.46473,30.39836 c2.55108,1.27554 5.21188,0.3476100000000001 7.755240000000001,-1.72429 c-0.48605000000000004,7.8598 -1.18262,19.58879 -1.18262,22.26373 c0,4.10789 10.68051,11.50208 10.68051,11.50208 s2.46473,9.03736 22.18259,9.03736 S225.15114379882812,588.5916992797852 225.15114379882812,588.5916992797852 l-10.6805,-23.82575 s-0.79912,0.3908400000000001 -3.21757,-1.57786 l0.86616,-9.52757 l4.81614,0.42493000000000003 l6.572620000000001,-96.12456 s5.751,-85.44405 6.572620000000001,-98.58929 a91.48467,91.48467 0 0 0 -0.29711000000000004,-12.63782 L253.9063237988281,296.93169927978516 zm-17.79856,31.87669 l-2.46473,8.58921 V284.0603192797852 zM129.15558379882813,355.39408927978513 c0.020410000000000005,-3.01086 -0.129,-5.05984 -0.129,-5.05984 l16.06183,-32.12366 l-0.45186000000000004,9.94107 S131.77305379882813,344.42323927978515 129.15558379882813,355.39408927978513 zM166.81914379882812,448.1019592797852 l15.61,-55.04569 l9.03735,66.54777 l-0.6480000000000001,24.19326 a38.572,38.572 0 0 1 -2.63828,-6.94013 C185.7154037988281,466.99823927978514 166.81914379882812,448.1019592797852 166.81914379882812,448.1019592797852 z" fill="#d0cde1" id="svg_3"/><path d="M389.14895379882813,578.8612292797851 c-7.697900000000001,-3.1697 -22.64079,-9.962 -24.45222,-13.5845 c-1.81118,-3.62249 -10.86748,-31.69714 -10.86748,-31.69714 l-2.33222,0.16961000000000004 c-0.30066000000000004,-12.75381 -1.58473,-62.18277 -3.55437,-68.092 c0,0 9.50909,-78.33723 -9.50921,-109.58151 l-3.42665,-13.84356 c1.12457,-5.5496 0.9803799999999999,-18.40039 0.257,-20.57048 c-0.90571,-2.7169 10.4148,-11.32046 7.24511,-16.75426 s-11.77319,-23.99924 -11.77319,-23.99924 s0.90559,-11.77325 -11.32052,-22.64079 c0,0 -3.57283,-20.22688 -19.67266,-20.52824 c-2.17646,-3.79841 -5.223,-9.83814 -4.32663,-12.52735 c0.95981,-2.87926 4.629630000000001,-11.85557 6.70233,-16.87981 a21.695,21.695 0 0 0 3.16116,-1.7592400000000001 c12.80441,-5.737 21.83067,-19.52818 21.83067,-35.639 c0,-17.24643 -10.34014,-31.842 -24.58975,-36.73622 a12.22024,12.22024 0 1 0 -23.64582,-4.38524 a12.20966,12.20966 0 0 1 11.26582,-16.9557 a12.27159,12.27159 0 0 1 2.36366,0.23306000000000002 a12.21507,12.21507 0 0 0 -13.08729,20.39731 a12.11628,12.11628 0 0 0 0.49895000000000006,1.31358 c-13.4084,5.41066 -22.97312,19.546 -22.97312,36.13321 c0,15.38622 8.23191,28.65832 20.12535,34.81881 c-0.06334000000000001,5.005 -1.30464,13.443 -8.207,18.58542 c-3.5655900000000003,-1.6291900000000001 -8.51364,-3.41742 -11.688600000000001,-2.6063 c-1.64175,-1.2798100000000001 -4.11946,-1.70234 -7.49072,1.66887 c-6.79219,6.79225 -12.6789,24.45209 -12.6789,35.31969 s1.3585,73.809 1.3585,73.809 s-7.2451,2.7169 -2.2641,6.79225 a5.87263,5.87263 0 0 0 3.6582500000000002,1.35945 l4.94525,36.67715 s-3.1697,35.31969 9.05641,35.77249 a4.83715,4.83715 0 0 0 2.7366400000000004,-0.6717800000000002 l-9.07615,40.972409999999996 s-20.82949,13.5845 -37.13088,40.30064 c-8.39621,13.76053 -12.58227,22.22579 -14.6732,27.20942 l-2.98671,-1.8516700000000001 l-10.41468,19.92389 s-23.09371,14.03735 -18.11271,24.45209 s9.50921,13.1317 9.50921,13.1317 l3.1697,-1.35845 l5.88648,10.8676 s15.3958,22.188 40.30069,10.86754 a9.10148,9.10148 0 0 0 0,-10.86754 c-4.07529,-5.88665 -14.49009,-18.5655 -14.49009,-18.5655 l6.79219,-34.414 l-1.40548,-0.87141 l43.06468,-52.10807 s12.67879,-7.697900000000001 17.207,-14.49015 s32.6028,-76.97878 32.6028,-76.97878 l15.84848,73.35623 s-0.90559,26.7162 3.1697,43.92319 a186.43145,186.43145 0 0 1 4.33213,29.34855 l-1.16232,0.08454000000000002 l2.7169,20.37675 s-11.77319,28.98024 -3.62261,31.24429 a119.40682,119.40682 0 0 0 17.6599,3.16975 l0.9056000000000001,-3.16975 s34.8669,19.01829 47.54568,4.981 C394.12983379882814,591.9929292797851 396.8468537988281,582.0309792797851 389.14895379882813,578.8612292797851 zM265.0771437988281,356.5284392797852 c1.35851,1.35845 0.9057200000000001,7.69785 0.9057200000000001,7.69785 l-2.7169,17.65984 l-2.7134,12.24907 a131.573,131.573 0 0 0 -2.26761,-17.23 l-1.25345,-33.84282 a2.61532,2.61532 0 0 0 0.80066,0.3343700000000001 c0.90559,0 0.45278999999999997,-7.69784 0.45278999999999997,-7.69784 s0.52852,-1.3747500000000001 1.188,-3.54432 c1.7604700000000002,5.27 3.90959,8.7086 6.50988,9.43092 l0.45278999999999997,5.88659 s-5.88659,2.7169 -0.45278999999999997,2.7169 a4.277,4.277 0 0 0 0.93328,-0.13864 l-0.48049000000000003,2.40274 S263.7187737988281,355.16998927978517 265.0771437988281,356.5284392797852 z" fill="#d0cde1" id="svg_4" class=""/><ellipse cx="381.40899658203125" cy="593.9553833007812" rx="364" ry="6" fill="#c9c7ed" id="svg_5" class="" fill-opacity="1"/><ellipse cx="508.8067626953125" cy="609.4553833007812" rx="400.3977355957031" ry="15.5" fill="#d2d0ef" id="svg_6" class="" fill-opacity="1"/><ellipse cx="434.90899658203125" cy="632.4553833007812" rx="196.5" ry="15.5" fill="#ceccea" id="svg_7" class="" fill-opacity="1"/><polygon points="465.909 553.455 469.909 581.455 489.909 579.455 487.909 550.455 465.909 553.455" fill="#ffb8b8" id="svg_11"/><polygon points="370.909 553.455 366.909 581.455 346.909 579.455 348.909 550.455 370.909 553.455" fill="#ffb8b8" id="svg_12"/><path d="M341.90899379882813,263.4553992797852 s-18,21 -14,54 s11,108 11,108 l5,133 l32,-2 l5,-113 l16,-91 l43,106 s21,99 22,99 s30,-3 30,-3 l-14,-117 s-22,-170 -35,-173 S341.90899379882813,263.4553992797852 341.90899379882813,263.4553992797852 z" fill="#1e2167" id="svg_13" class="" fill-opacity="1"/><path d="M491.9089937988281,575.4553992797852 s-18,-12 -25,2 s-1,24 -1,24 s6,4 3,8 s-4,30 22,26 s13,-31 13,-31 z" fill="#2f2e41" id="svg_14"/><path d="M344.90899379882813,575.4553992797852 s18,-12 25,2 s1,24 1,24 s-6,4 -3,8 s4,30 -22,26 s-13,-31 -13,-31 z" fill="#2f2e41" id="svg_15"/><path d="M366.40899379882813,68.95539927978515 s9,25 2,39 s11,30 11,30 s47,-24 41,-36 s-16,-28 -14,-38 z" fill="#ffb8b8" id="svg_16"/><circle cx="383.90899658203125" cy="46.45539855957031" r="32" fill="#ffb8b8" id="svg_17"/><path d="M360.90899379882813,106.45539927978515 s32.108,26.71833 56.054,-11.14083 l24.946,14.14083 l13,152 s-73,42 -108,6 l5,-141 z" fill="#d0cde1" id="svg_18"/><polygon points="370.992 91.488 325.909 121.455 341.909 195.455 320.909 310.455 354.909 259.455 370.992 91.488" fill="#38c19d" id="svg_19" class="" fill-opacity="1"/><path d="M410.83624379882815,83.14693927978516 l11.07275,7.30846 l45,16 l-7,124 l19,80 l-27,14 s-5,-38 -36,-57 S403.7634937988281,88.83847927978516 410.83624379882815,83.14693927978516 z" fill="#38c19d" id="svg_20" class="" fill-opacity="1"/><path d="M335.90899379882813,277.4553992797852 l13,9 s-16.5,17.5 -19.5,14.5 a8.19972,8.19972 0 0 1 -2.5,-6.5 l-3,-7 z" fill="#ffb8b8" id="svg_21"/><path d="M422.3286437988281,275.50996927978514 l-4.41965,6.94543 s-13,6 -10,10 s28,13 33,4 l5,-9 z" fill="#ffb8b8" id="svg_22"/><path d="M331.90899379882813,120.45539927978515 l-7,1 l-11.5,74.5 s-4.5,13.5 0.5,45.5 s9.95137,52.83775 9.95137,52.83775 l22.04863,-15.83775 l-10,-26 l13,-95 z" fill="#38c19d" id="svg_23" class="" fill-opacity="1"/><path d="M450.9089937988281,104.45539927978515 l16,2 s18,19 21,39 s2,77 2,77 l-46,73 l-25,-18 l35,-62 l-17,-74 z" fill="#38c19d" id="svg_24" class="" fill-opacity="1"/><path d="M414.4243437988281,17.51312927978516 a37.38374,37.38374 0 0 0 -21.26531,-16.25685 l-6.50165,5.2013 l2.52773,-6.06673 a34.41439,34.41439 0 0 0 -6.426,-0.37140000000000006 l-5.84983,7.52125 l2.42117,-7.26362 a37.02632,37.02632 0 0 0 -25.54254,15.19343 c-7.44543,10.73558 -8.70175,25.66535 -1.3788900000000002,36.48489 c2.01023,-6.17759 4.45,-11.97424 6.46026,-18.1519 a18.28485,18.28485 0 0 0 4.763,0.023200000000000005 l2.44576,-5.7066300000000005 l0.6831700000000002,5.46527 c7.58041,-0.6604900000000001 18.82405,-2.11039 26.01059,-3.43891 l-0.6987700000000002,-4.19261 l4.18084,3.48406 c2.20182,-0.50692 3.5090500000000002,-0.96651 3.401,-1.3178100000000001 c5.34476,8.61641 10.64059,14.11989 15.98521,22.73623 C417.66896379882814,38.702619279785154 421.25059379882816,28.600089279785152 414.4243437988281,17.51312927978516 z" fill="#2f2e41" id="svg_25"/><ellipse cx="412.6523742675781" cy="45.450069427490234" rx="2.166249990463257" ry="4.332499980926514" fill="#ffb8b8" id="svg_26"/><path d="M959.1945137988282,51.18702927978515 c0.028690000000000004,-0.09119000000000003 0.05900000000000001,-0.18353000000000003 0.08777000000000003,-0.275 c-0.012450000000000001,0.04010000000000001 -0.028070000000000005,0.07867000000000002 -0.04028,0.11889000000000002 z" fill="#2f2e41" id="svg_33"/></g></svg>