<svg xmlns="http://www.w3.org/2000/svg" version="1.0" width="583.000000" height="234.000000" preserveAspectRatio="xMidYMid meet"><rect id="backgroundrect" width="100%" height="100%" x="0" y="0" fill="none" stroke="none"/>
<metadata>
Created by potrace 1.15, written by Peter Selinger 2001-2017
</metadata>

<g class="currentLayer" style=""><title>Layer 1</title><g transform="translate(0,234) scale(0.10000000149011612,-0.10000000149011612) " fill="#ffffff" stroke="none" id="svg_1" class="" fill-opacity="1">
<path d="M1440 2076 l0 -163 81 -6 c87 -6 149 0 149 14 0 5 -7 9 -15 9 -16 0 -19 9 -9 35 5 13 8 14 15 3 6 -9 9 -2 9 20 0 30 -2 32 -20 22 -11 -6 -18 -15 -15 -20 3 -5 1 -12 -5 -15 -6 -4 -9 -1 -8 7 2 7 -4 13 -12 14 -8 0 -37 5 -65 9 -27 5 -54 8 -58 7 -5 -1 -6 2 -2 8 3 5 -1 10 -9 10 -9 0 -16 5 -16 10 0 6 6 10 13 10 18 0 44 30 49 55 2 12 16 24 35 30 18 6 44 22 58 35 30 28 36 29 46 3 5 -12 8 -4 8 25 l1 42 -115 0 -115 0 0 -164z" id="svg_2" fill="#ffffff" fill-opacity="1"/>
<path d="M2491 2231 c-9 -6 -10 -11 -2 -15 6 -4 11 -27 11 -52 0 -37 6 -51 36 -84 34 -38 36 -43 32 -93 -3 -28 -9 -60 -13 -69 -6 -15 -2 -18 29 -18 l36 0 0 170 0 170 -57 0 c-32 0 -64 -4 -72 -9z" id="svg_3" fill="#ffffff" fill-opacity="1"/>
<path d="M2650 2070 l0 -170 74 0 73 0 7 38 c3 20 6 51 6 69 0 33 19 58 21 26 0 -15 2 -14 11 5 6 12 15 22 21 22 6 0 6 -5 -1 -12 -5 -7 -12 -43 -14 -80 l-4 -68 73 0 73 0 0 170 0 170 -170 0 -170 0 0 -170z" id="svg_4" fill="#ffffff" fill-opacity="1"/>
<path d="M3010 2070 l0 -170 34 0 c22 0 36 6 40 16 5 12 14 14 46 9 43 -7 57 9 19 23 -21 8 -21 9 5 25 14 9 30 17 36 17 5 0 10 9 10 21 0 11 5 30 12 42 12 23 15 108 4 126 -15 23 -114 61 -159 61 l-47 0 0 -170z" id="svg_5" fill="#ffffff" fill-opacity="1"/>
<path d="M4508 2234 c-3 -3 -2 -21 4 -41 5 -20 7 -44 5 -54 -3 -12 7 -30 30 -52 42 -42 53 -95 30 -150 l-16 -37 40 0 39 0 0 170 0 170 -63 0 c-35 0 -66 -3 -69 -6z" id="svg_6" fill="#ffffff" fill-opacity="1"/>
<path d="M4670 2070 l0 -170 75 0 75 0 0 69 c0 46 4 71 12 73 24 8 33 -15 30 -78 l-4 -64 71 0 71 0 0 170 0 170 -165 0 -165 0 0 -170z" id="svg_7" fill="#ffffff" fill-opacity="1"/>
<path d="M5030 2069 l0 -170 33 3 c22 2 32 8 31 19 -1 14 5 15 34 8 19 -4 39 -12 45 -18 12 -12 187 -15 187 -3 0 4 -21 18 -46 31 -25 14 -54 36 -65 49 -16 20 -19 22 -19 7 0 -10 -10 -33 -22 -53 -20 -33 -22 -34 -29 -13 -5 11 -14 21 -21 21 -7 0 0 11 17 24 16 13 32 23 35 21 3 -2 7 8 8 23 1 14 7 31 12 36 6 6 10 33 10 61 0 57 -22 87 -72 99 -16 3 -28 11 -28 16 0 6 -25 10 -55 10 l-55 0 0 -171z" id="svg_8" fill="#ffffff" fill-opacity="1"/>
<path d="M261 2182 c3 -31 -1 -54 -8 -61 -18 -17 -17 -44 2 -37 11 4 15 -2 15 -22 -1 -30 -29 -87 -30 -62 -1 8 -7 -7 -15 -35 -14 -54 -10 -62 32 -59 15 1 38 3 51 3 22 1 22 3 22 131 0 75 -4 130 -9 130 -6 0 -16 12 -23 27 -24 48 -41 41 -37 -15z" id="svg_9" fill="#ffffff" fill-opacity="1"/>
<path d="M1192 2218 c-18 -18 -15 -77 3 -85 19 -7 34 5 20 15 -6 4 -11 13 -12 20 -4 17 34 15 41 -3 3 -8 1 -15 -4 -15 -6 0 -10 -8 -10 -18 0 -20 -28 -47 -59 -57 -12 -3 -23 -18 -27 -33 -3 -15 -9 -46 -15 -69 -16 -75 -23 -71 121 -71 147 -1 139 -6 143 87 2 42 -1 46 -43 79 -40 31 -45 39 -47 78 -2 64 -17 84 -61 84 -21 0 -43 -5 -50 -12z" id="svg_10" fill="#ffffff" fill-opacity="1"/>
<path d="M2365 2182 l-70 -38 -3 -122 -3 -122 72 0 c64 0 70 2 58 16 -8 10 -22 14 -40 10 -19 -4 -29 0 -33 11 -10 25 -3 25 47 4 l46 -20 21 29 c23 32 26 48 6 31 -17 -14 -26 5 -26 55 0 32 2 35 23 30 12 -3 16 -3 10 0 -9 4 -10 11 -3 24 6 10 6 21 2 24 -5 3 -7 18 -5 33 2 16 -4 37 -14 50 l-18 22 -70 -37z" id="svg_11" fill="#ffffff" fill-opacity="1"/>
<path d="M477 2193 c-23 -26 -22 -40 2 -19 12 11 27 15 39 11 16 -5 20 -13 17 -40 -2 -19 1 -35 6 -35 15 0 10 -57 -6 -64 -17 -6 -21 -36 -4 -36 6 0 19 5 30 10 26 14 24 7 -12 -56 l-30 -54 85 0 86 0 0 30 c0 25 -6 32 -42 48 -64 28 -73 43 -59 96 17 69 -5 110 -65 122 -22 4 -34 0 -47 -13z" id="svg_12" fill="#ffffff" fill-opacity="1"/>
<path d="M4369 2177 l-64 -34 -3 -122 -3 -121 72 0 c64 0 70 2 58 16 -8 9 -22 14 -37 11 -14 -3 -26 1 -29 10 -8 20 2 26 24 14 53 -29 81 -38 77 -26 -3 7 2 19 10 28 20 20 20 28 1 21 -12 -5 -15 4 -15 44 0 47 2 50 23 45 16 -3 18 -2 8 5 -8 6 -11 18 -6 31 4 13 2 21 -5 21 -7 0 -8 6 -1 18 12 22 -7 65 -30 70 -9 1 -45 -12 -80 -31z" id="svg_13" fill="#ffffff" fill-opacity="1"/>
<path d="M4202 2053 c-37 -38 -77 -87 -90 -110 l-23 -43 95 0 96 0 0 110 c0 61 -2 110 -5 110 -3 0 -35 -30 -73 -67z" id="svg_14" fill="#ffffff" fill-opacity="1"/>
<path d="M2188 2055 c-47 -46 -108 -130 -108 -149 0 -3 41 -6 90 -6 l90 0 0 105 c0 58 -4 105 -8 105 -4 0 -33 -25 -64 -55z" id="svg_15" fill="#ffffff" fill-opacity="1"/>
<path d="M204 1865 c-6 -16 -2 -47 11 -77 5 -12 3 -18 -7 -18 -21 0 -18 -32 4 -38 10 -2 18 -6 18 -8 0 -13 -27 -62 -41 -74 -9 -8 -20 -25 -24 -37 -5 -19 -2 -23 14 -23 22 0 28 -14 11 -25 -26 -16 -4 -25 59 -25 71 0 95 11 64 28 -14 8 -15 13 -4 25 8 11 13 58 14 149 l2 133 -58 3 c-45 2 -59 0 -63 -13z" id="svg_16" fill="#ffffff" fill-opacity="1"/>
<path d="M352 1713 l3 -168 62 -3 62 -3 7 38 c11 65 23 73 24 15 0 -68 22 -66 26 2 3 38 9 53 35 77 17 16 34 27 37 25 2 -3 -7 -35 -22 -71 -14 -36 -26 -70 -26 -76 0 -6 24 -9 63 -7 l62 3 3 168 2 167 -170 0 -170 0 2 -167z" id="svg_17" fill="#ffffff" fill-opacity="1"/>
<path d="M1079 1858 c-2 -31 2 -72 7 -77 2 -2 9 1 16 6 23 18 58 22 58 7 0 -18 28 -17 60 1 33 19 60 19 60 0 0 -18 33 -20 63 -4 16 9 22 9 25 0 2 -6 12 -11 23 -11 16 0 19 7 19 50 0 43 -3 50 -20 50 -16 0 -20 -7 -20 -35 0 -19 -4 -35 -9 -35 -27 0 -41 15 -41 41 0 22 -5 29 -20 29 -14 0 -20 -7 -20 -21 0 -15 -4 -19 -16 -15 -9 3 -22 6 -30 6 -8 0 -14 7 -14 15 0 10 -10 15 -30 15 -27 0 -30 -3 -30 -30 0 -22 -5 -30 -17 -30 -27 0 -44 14 -46 38 -2 29 -17 28 -18 0z" id="svg_18" fill="#ffffff" fill-opacity="1"/>
<path d="M2130 1854 c14 -36 12 -60 -5 -77 -11 -11 -12 -16 -3 -19 9 -3 6 -22 -12 -66 -13 -33 -27 -59 -31 -57 -3 3 -9 21 -12 41 -5 27 -1 41 13 57 14 14 17 23 9 28 -7 4 -9 16 -6 28 4 16 1 21 -14 21 -10 0 -19 5 -19 10 0 9 14 14 33 11 4 0 7 4 7 9 0 21 -37 9 -48 -15 -12 -25 -54 -190 -66 -253 l-6 -33 143 3 142 3 3 168 2 167 -50 0 c-39 0 -49 -3 -43 -12 4 -7 9 -17 10 -23 1 -5 7 -30 13 -54 6 -24 9 -51 7 -60 -2 -10 -7 -4 -12 14 -8 31 -55 135 -61 135 -2 0 1 -12 6 -26z" id="svg_19" fill="#ffffff" fill-opacity="1"/>
<path d="M2290 1710 l0 -170 30 0 c19 0 33 6 37 16 5 13 14 15 44 10 30 -5 39 -3 39 8 0 8 -8 16 -17 18 -14 3 -9 10 19 28 25 16 38 33 38 47 0 12 5 25 10 28 6 3 10 30 10 59 0 58 -22 89 -72 101 -16 4 -28 11 -28 16 0 5 -25 9 -55 9 l-55 0 0 -170z" id="svg_20" fill="#ffffff" fill-opacity="1"/>
<path d="M3010 1830 c0 -28 7 -64 15 -79 12 -25 30 -90 50 -183 l5 -28 135 0 135 0 0 170 0 170 -170 0 -170 0 0 -50z" id="svg_21" fill="#ffffff" fill-opacity="1"/>
<path d="M3370 1710 l0 -170 64 0 64 0 7 38 c11 64 26 74 23 14 -2 -42 0 -52 12 -50 11 2 15 17 15 51 1 41 6 52 33 78 18 16 32 32 32 34 0 16 -22 55 -31 55 -9 0 -9 -3 0 -14 9 -11 8 -15 -5 -20 -22 -9 -36 -7 -30 3 3 4 -7 6 -22 4 -22 -4 -24 -2 -12 7 12 9 10 11 -12 7 -28 -4 -37 6 -17 19 6 3 8 17 5 30 -9 34 10 64 39 64 14 0 25 5 25 10 0 6 -38 10 -95 10 l-95 0 0 -170z" id="svg_22" fill="#ffffff" fill-opacity="1"/>
<path d="M4185 1863 c16 -42 32 -133 24 -133 -5 0 -9 9 -9 19 0 10 -12 39 -26 62 -15 26 -24 34 -21 21 3 -12 1 -35 -3 -50 -5 -15 -17 -55 -27 -89 -19 -68 -27 -76 -37 -40 -10 39 -7 60 16 84 18 19 19 23 5 23 -13 0 -15 5 -7 24 10 27 5 37 -16 29 -9 -3 -14 2 -14 13 -1 16 -2 17 -9 4 -14 -22 -58 -187 -66 -243 l-7 -48 143 3 144 3 3 168 2 167 -51 0 c-45 0 -50 -2 -44 -17z" id="svg_23" fill="#ffffff" fill-opacity="1"/>
<path d="M4300 1710 l0 -170 34 0 c22 0 36 6 40 16 5 13 15 15 46 10 40 -6 57 8 25 20 -22 9 -19 18 15 37 27 16 31 16 36 3 3 -9 -4 -31 -16 -51 l-22 -35 56 0 c52 0 56 2 56 23 0 21 -44 71 -62 72 -16 0 -19 17 -8 47 19 52 21 109 5 134 -8 12 -30 27 -50 34 -19 6 -35 16 -35 21 0 5 -27 9 -60 9 l-60 0 0 -170z" id="svg_24" fill="#ffffff" fill-opacity="1"/>
<path d="M5030 1826 c0 -30 8 -72 19 -97 10 -24 25 -77 32 -116 l12 -73 134 0 133 0 0 170 0 170 -165 0 -165 0 0 -54z" id="svg_25" fill="#ffffff" fill-opacity="1"/>
<path d="M5390 1710 l0 -170 59 0 60 0 14 48 15 47 1 -47 c1 -36 5 -48 16 -48 11 0 15 12 15 52 0 46 4 55 31 78 27 22 31 30 24 58 -7 32 -25 45 -25 18 0 -19 -20 -32 -29 -19 -3 6 -15 7 -26 2 -14 -5 -16 -8 -5 -9 8 -2 19 -2 23 -1 5 1 7 -6 5 -16 -2 -10 -14 -19 -28 -21 -24 -3 -24 -3 -6 11 18 13 18 14 1 21 -14 5 -15 9 -5 21 10 13 9 15 -9 15 -19 0 -20 2 -10 22 9 16 9 23 0 26 -32 11 5 62 45 62 14 0 22 4 19 10 -3 6 -46 10 -96 10 l-89 0 0 -170z" id="svg_26" fill="#ffffff" fill-opacity="1"/>
<path d="M355 1502 c-3 -8 -5 -83 -5 -168 l0 -154 71 0 71 0 -6 35 c-9 44 1 80 17 67 22 -17 68 -23 84 -11 12 11 14 9 12 -12 -1 -13 -1 -36 -1 -51 2 -26 5 -28 47 -28 l45 0 0 140 c0 87 -4 140 -10 140 -5 0 -10 11 -10 24 0 21 -5 24 -67 29 -113 11 -117 10 -130 -23 -15 -39 -37 -40 -28 -1 6 29 6 29 -39 27 -28 0 -48 -6 -51 -14z" id="svg_27" fill="#ffffff" fill-opacity="1"/>
<path d="M776 1500 c-27 -11 -52 -24 -55 -29 -3 -5 -5 -71 -3 -148 l3 -139 165 -2 164 -3 0 171 0 170 -112 0 c-87 -1 -124 -5 -162 -20z m200 -92 c-1 -48 -5 -66 -18 -76 -10 -7 -18 -19 -18 -26 0 -8 -7 -17 -16 -20 -8 -3 -13 -10 -10 -15 6 -9 -35 -2 -116 20 -43 11 -51 36 -18 57 12 7 18 17 14 23 -10 17 27 49 58 49 17 0 28 5 28 14 0 15 41 34 76 35 19 1 21 -4 20 -61z" id="svg_28" fill="#ffffff" fill-opacity="1"/>
<path d="M1084 1511 c-2 -2 -4 -75 -4 -162 0 -154 0 -157 23 -163 35 -9 107 -7 107 4 0 5 7 7 15 4 23 -9 20 77 -4 107 -24 30 -10 84 20 76 11 -3 22 -1 25 5 7 12 -18 31 -26 20 -3 -4 -13 -8 -22 -8 -27 -3 -23 49 7 83 24 27 24 27 25 6 0 -24 6 -26 53 -23 23 1 27 -2 27 -27 0 -17 -8 -33 -19 -40 -22 -14 -32 -58 -20 -91 6 -16 6 -29 -2 -38 -14 -17 -3 -35 16 -27 17 6 19 -5 5 -27 -12 -20 6 -30 58 -30 l42 0 0 146 0 145 -46 21 c-37 16 -70 21 -161 22 -63 1 -116 0 -119 -3z" id="svg_29" fill="#ffffff" fill-opacity="1"/>
<path d="M2042 1468 c-15 -15 -15 -83 -1 -109 14 -27 1 -42 -51 -59 l-40 -13 0 -54 0 -53 45 0 45 0 0 40 c0 22 4 40 9 40 15 0 23 -18 11 -25 -5 -3 -10 -18 -10 -32 0 -30 9 -27 15 5 2 11 9 31 16 44 7 13 13 31 14 41 1 11 8 23 15 27 10 6 8 9 -8 12 -17 2 -19 6 -12 18 8 12 12 13 19 2 7 -11 9 -11 14 1 8 21 -7 39 -26 31 -10 -3 -17 -1 -17 5 0 6 3 10 8 10 4 -1 16 -1 27 0 17 1 18 3 5 11 -8 5 -25 10 -37 10 -14 0 -23 6 -23 16 0 11 6 14 21 9 15 -5 19 -4 15 4 -13 21 -42 31 -54 19z" id="svg_30" fill="#ffffff" fill-opacity="1"/>
<path d="M4050 1461 c-10 -19 -9 -46 5 -107 7 -30 5 -32 -38 -49 -46 -17 -57 -37 -57 -101 0 -22 4 -24 45 -24 43 0 45 1 45 29 0 38 20 92 31 85 5 -3 6 -11 2 -17 -4 -6 -8 -18 -8 -27 -1 -8 -5 -25 -9 -37 -5 -17 -3 -23 8 -23 9 0 15 8 14 18 -4 51 2 64 25 59 20 -6 21 -5 4 8 -12 8 -14 15 -8 20 17 10 13 35 -4 35 -13 0 -14 2 -3 14 11 12 14 11 19 -3 6 -14 8 -14 15 3 4 11 2 27 -5 38 -7 11 -8 17 -2 14 5 -4 12 -2 15 3 7 11 -17 21 -48 21 -14 0 -23 6 -23 16 0 11 7 14 26 10 l26 -6 -24 20 c-29 25 -38 25 -51 1z" id="svg_31" fill="#ffffff" fill-opacity="1"/>
<path d="M1440 1315 l0 -135 129 1 130 0 -11 25 c-8 16 -20 24 -37 24 -30 1 -107 52 -103 69 1 6 -2 11 -7 11 -5 0 -9 6 -8 13 2 61 -4 77 -40 102 -21 14 -41 25 -45 25 -5 0 -8 -61 -8 -135z" id="svg_32" fill="#ffffff" fill-opacity="1"/>
<path d="M2502 1338 c-7 -7 -29 -13 -49 -14 -21 0 -45 -4 -53 -8 -8 -3 -35 -12 -60 -19 l-45 -13 -3 -52 -3 -52 100 0 c56 0 101 2 101 5 0 10 -35 82 -50 99 -14 18 -14 19 3 13 10 -4 23 -7 29 -7 6 0 7 -7 4 -15 -8 -21 23 -95 40 -95 17 0 18 22 2 53 -6 12 -14 29 -18 37 -4 8 2 29 13 47 19 32 13 45 -11 21z" id="svg_33" fill="#ffffff" fill-opacity="1"/>
<path d="M3474 1337 c-14 -7 -21 -21 -22 -39 0 -16 3 -26 8 -23 5 3 20 -1 33 -10 23 -15 62 -11 52 4 -2 4 2 8 10 8 24 0 26 -26 4 -48 -24 -24 -65 -19 -89 11 -13 17 -20 18 -57 7 -38 -10 -43 -15 -43 -39 l0 -28 155 0 155 0 0 44 c0 41 -2 45 -31 51 -17 4 -33 13 -35 20 -3 8 -19 18 -36 24 -26 9 -29 9 -18 -4 10 -13 9 -15 -9 -15 -12 0 -20 4 -17 9 3 5 -6 12 -19 15 -14 4 -23 11 -20 16 7 11 8 11 -21 -3z" id="svg_34" fill="#ffffff" fill-opacity="1"/>
<path d="M4506 1333 c-16 -8 -40 -13 -56 -10 -15 3 -32 1 -37 -4 -5 -5 -32 -15 -59 -22 l-49 -12 -3 -52 -3 -53 106 0 105 0 -26 53 c-14 28 -34 61 -43 72 -15 19 -15 19 4 4 11 -9 26 -18 34 -21 8 -2 15 -19 17 -37 5 -42 21 -71 39 -71 20 0 19 13 -5 60 -19 38 -19 42 -4 71 8 17 14 32 12 34 -2 2 -16 -4 -32 -12z" id="svg_35" fill="#ffffff" fill-opacity="1"/>
<path d="M5484 1336 c-29 -13 -32 -66 -3 -59 10 3 19 1 19 -5 0 -5 16 -10 35 -9 23 1 31 4 22 10 -8 6 -5 7 10 4 12 -3 24 0 27 7 2 6 5 2 5 -10 1 -11 -10 -31 -23 -43 -19 -18 -31 -21 -55 -16 -17 4 -31 10 -31 13 0 4 -4 13 -9 20 -7 11 -16 11 -50 1 -36 -11 -41 -16 -41 -41 l0 -28 156 0 155 0 -3 43 c-3 37 -7 43 -33 52 -17 6 -46 22 -65 37 -27 22 -37 24 -52 15 -15 -10 -22 -9 -31 3 -9 11 -18 13 -33 6z" id="svg_36" fill="#ffffff" fill-opacity="1"/>
<path d="M4150 1258 l0 -78 65 0 65 0 0 44 c0 50 -8 59 -70 77 -25 7 -48 18 -52 24 -4 5 -8 -25 -8 -67z" id="svg_37" fill="#ffffff" fill-opacity="1"/>
<path d="M1955 1043 c4 -65 10 -140 14 -168 l6 -50 53 -3 52 -3 0 64 c0 48 4 66 15 71 8 3 15 0 15 -7 1 -7 8 -1 16 13 10 16 13 18 8 5 -4 -11 -9 -48 -12 -82 l-4 -63 71 0 71 0 0 170 0 170 -156 0 -157 0 8 -117z" id="svg_38" fill="#ffffff" fill-opacity="1"/>
<path d="M2290 991 l0 -171 80 0 c44 0 80 2 80 5 0 3 -11 28 -25 55 -14 27 -25 56 -25 65 0 8 -6 25 -12 36 -10 17 -10 23 0 26 6 3 12 13 12 22 0 25 32 52 65 54 22 2 28 -3 31 -20 2 -13 -1 -23 -6 -23 -6 0 -10 -10 -9 -22 0 -13 3 -17 6 -10 6 15 23 6 23 -13 0 -9 -6 -12 -17 -8 -13 5 -15 2 -11 -15 4 -13 1 -22 -5 -22 -8 0 -7 -4 2 -9 21 -13 -8 -20 -38 -9 -36 13 -38 1 -2 -19 29 -17 35 -33 34 -80 -1 -7 11 -13 25 -13 23 0 24 1 10 18 -17 19 -33 62 -23 62 13 0 32 -26 39 -53 3 -15 12 -27 19 -27 10 0 11 13 4 58 -5 31 -12 106 -15 166 -5 77 -11 111 -20 114 -7 2 -16 -5 -19 -17 -8 -30 -63 -30 -63 0 0 16 -5 20 -27 17 -22 -2 -29 -9 -31 -30 -3 -24 -8 -28 -33 -28 -24 0 -29 4 -29 24 0 14 -4 28 -10 31 -7 4 -10 -53 -10 -164z" id="svg_39" fill="#ffffff" fill-opacity="1"/>
<path d="M3100 1101 c0 -32 -3 -85 -6 -119 -6 -59 -6 -61 15 -55 13 3 21 1 21 -6 0 -7 8 -11 18 -10 41 4 63 -1 56 -13 -3 -7 5 0 18 15 l23 29 53 -21 52 -21 0 130 0 130 -125 0 -125 0 0 -59z" id="svg_40" fill="#ffffff" fill-opacity="1"/>
<path d="M3967 1153 c-6 -9 9 -239 19 -295 6 -38 6 -38 55 -38 27 0 50 5 50 10 1 6 3 15 4 20 1 6 3 32 4 59 1 41 4 49 19 47 9 -2 22 4 28 13 9 12 8 18 -5 28 -15 12 -15 14 2 27 11 8 14 17 8 20 -5 4 -12 2 -16 -4 -14 -22 -27 -9 -21 21 4 19 1 38 -6 47 -10 11 -8 17 7 29 22 15 65 10 77 -10 12 -18 9 -95 -3 -102 -5 -4 -8 -12 -6 -18 1 -5 -7 -21 -20 -35 -19 -21 -23 -36 -23 -88 l0 -64 70 0 70 0 0 170 0 170 -154 0 c-85 0 -157 -3 -159 -7z" id="svg_41" fill="#ffffff" fill-opacity="1"/>
<path d="M4300 990 l0 -170 80 0 c48 0 80 4 80 10 0 6 -11 33 -25 60 -24 47 -33 77 -17 55 13 -20 67 -52 79 -48 14 5 43 -35 43 -59 0 -10 7 -18 15 -18 13 0 14 10 9 58 -4 31 -11 59 -15 62 -5 3 -7 53 -6 110 2 88 0 105 -13 105 -8 0 -16 -9 -18 -21 -2 -16 -9 -20 -32 -16 -17 2 -30 11 -33 24 -4 15 -12 19 -34 16 -24 -3 -28 -7 -25 -30 3 -25 0 -28 -26 -28 -24 0 -32 6 -41 30 -5 17 -12 30 -15 30 -4 0 -6 -76 -6 -170z m210 76 c0 -14 -4 -28 -10 -31 -12 -7 -14 -26 -2 -24 22 4 32 -3 32 -23 -1 -21 -2 -21 -11 -5 -14 25 -29 12 -24 -23 2 -16 -2 -30 -8 -33 -19 -7 -55 10 -69 33 -17 27 -28 25 -28 -5 0 -17 -8 -29 -25 -37 -14 -6 -28 -8 -32 -4 -4 4 -9 37 -11 73 -5 70 7 93 49 93 15 0 17 -6 12 -34 -4 -25 -1 -35 11 -39 11 -4 16 -1 16 11 0 26 27 60 53 65 43 8 47 7 47 -17z" id="svg_42" fill="#ffffff" fill-opacity="1"/>
<path d="M5115 1148 c-2 -7 -5 -61 -7 -120 -3 -99 -2 -107 15 -102 9 3 17 1 17 -3 0 -5 16 -10 36 -11 20 -2 41 -4 48 -5 6 -1 11 5 10 14 -2 20 21 21 69 3 20 -8 42 -14 47 -14 6 0 10 50 10 125 l0 125 -120 0 c-88 0 -122 -3 -125 -12z" id="svg_43" fill="#ffffff" fill-opacity="1"/>
<path d="M1556 1134 c-28 -27 -17 -84 15 -84 23 0 25 -18 4 -26 -8 -4 -13 -10 -10 -14 3 -5 -8 -11 -25 -15 -31 -7 -33 -11 -44 -90 -3 -22 -9 -50 -12 -63 l-6 -23 133 3 134 3 9 48 c11 61 -1 89 -52 121 -38 24 -40 27 -39 75 0 27 -5 56 -12 65 -17 21 -75 21 -95 0z" id="svg_44" fill="#ffffff" fill-opacity="1"/>
<path d="M3370 985 l0 -165 78 0 77 0 2 35 c2 34 -10 47 -20 23 -3 -7 -6 -3 -6 9 -1 16 3 20 19 16 24 -6 26 4 5 27 -9 10 -16 38 -16 69 -1 36 -6 54 -16 58 -8 3 -12 12 -9 19 3 8 1 14 -3 14 -14 0 -19 -23 -9 -43 5 -10 14 -14 20 -11 8 5 9 1 5 -10 -4 -10 -7 -27 -8 -39 -1 -20 -2 -20 -9 3 l-8 25 -1 -25 c-1 -15 4 -31 11 -38 9 -9 8 -12 -3 -16 -8 -2 -29 -9 -48 -15 -19 -6 -38 -11 -44 -11 -14 0 -2 143 12 148 6 2 9 8 6 13 -3 4 5 11 19 15 24 6 36 28 29 52 -3 7 -21 12 -44 12 l-39 0 0 -165z" id="svg_45" fill="#ffffff" fill-opacity="1"/>
<path d="M1146 1087 c-14 -20 -13 -29 4 -87 10 -36 22 -91 25 -122 l6 -58 105 0 c104 0 117 5 96 36 -9 15 -167 94 -187 94 -8 0 -15 4 -15 9 0 5 8 7 19 4 14 -4 18 1 17 18 -1 16 -9 25 -26 30 -26 7 -19 10 32 13 38 2 27 16 -13 16 -39 0 -45 3 -46 22 -1 12 3 28 9 35 7 9 7 13 -1 13 -6 0 -17 -10 -25 -23z" id="svg_46" fill="#ffffff" fill-opacity="1"/>
<path d="M5484 1086 c-8 -22 0 -51 14 -48 8 1 12 -13 11 -40 l-1 -43 -14 35 c-14 35 -14 35 -11 5 2 -16 6 -36 8 -44 3 -11 -12 -19 -48 -29 -53 -15 -63 -27 -63 -79 0 -22 4 -23 79 -23 l79 0 5 33 c6 42 0 47 -25 17 -14 -18 -18 -20 -14 -7 3 10 6 28 6 40 0 16 3 18 12 9 7 -7 16 -12 20 -12 14 0 9 28 -6 33 -11 5 -14 19 -10 62 4 51 2 57 -16 62 -15 4 -19 11 -15 24 7 22 -3 26 -11 5z" id="svg_47" fill="#ffffff" fill-opacity="1"/>
<path d="M2007 793 c-16 -4 -18 -11 -12 -51 9 -59 51 -195 76 -244 l19 -38 85 0 85 0 0 165 0 165 -46 0 c-33 0 -45 -4 -41 -13 10 -28 28 -129 24 -134 -3 -3 -11 12 -17 33 -12 45 -49 115 -50 96 0 -7 -4 -10 -10 -7 -5 3 -10 1 -10 -5 0 -7 7 -9 16 -6 14 5 15 1 10 -26 -3 -18 -8 -46 -10 -63 -6 -43 -44 -123 -50 -105 -17 55 -17 73 4 87 14 10 18 19 12 26 -5 7 -8 23 -6 36 3 17 0 22 -11 18 -19 -8 -32 13 -14 23 7 5 17 6 21 4 4 -3 8 0 8 6 0 7 -7 10 -15 6 -9 -3 -15 0 -15 8 0 11 -26 30 -33 25 -1 -1 -10 -3 -20 -6z" id="svg_48" fill="#ffffff" fill-opacity="1"/>
<path d="M3076 788 c-3 -7 -9 -35 -16 -62 -6 -27 -20 -66 -30 -87 -14 -27 -20 -59 -20 -109 l0 -70 34 0 c20 0 36 6 39 14 5 13 35 15 62 5 6 -2 11 -1 13 4 6 18 1 27 -15 27 -12 1 -6 8 18 22 86 51 84 236 -2 238 -9 0 -22 7 -29 15 -15 18 -49 20 -54 3z" id="svg_49" fill="#ffffff" fill-opacity="1"/>
<path d="M3370 630 l0 -170 80 0 c48 0 80 4 80 10 0 6 -11 33 -25 60 -14 27 -25 53 -24 57 3 19 -2 33 -11 33 -5 0 -10 -11 -10 -23 0 -20 -32 -47 -55 -47 -11 0 -24 144 -14 155 2 2 16 6 32 10 26 7 27 5 27 -29 0 -25 4 -36 15 -36 8 0 15 6 15 14 0 24 34 54 68 61 29 6 32 5 32 -19 0 -14 -4 -26 -10 -26 -5 0 -10 -7 -10 -16 0 -8 4 -13 9 -10 5 3 15 -1 22 -10 11 -14 10 -15 -6 -12 -16 2 -19 -3 -18 -30 0 -30 -2 -33 -26 -30 -14 1 -32 6 -38 11 -8 6 -13 6 -13 -1 0 -5 16 -19 35 -31 22 -13 33 -25 29 -35 -3 -7 0 -17 7 -21 9 -6 10 -1 7 19 -3 17 -1 26 7 26 17 0 25 23 35 99 5 35 14 68 22 73 10 7 9 10 -4 19 -11 6 -18 22 -18 39 0 20 -5 30 -15 30 -9 0 -15 -9 -15 -25 0 -22 -3 -23 -24 -15 -13 5 -27 6 -30 3 -3 -4 -6 4 -6 16 0 19 -5 22 -32 19 -28 -2 -34 -8 -36 -31 -3 -24 -7 -28 -30 -25 -21 2 -28 9 -30 31 -2 15 -8 27 -13 27 -5 0 -9 -71 -9 -170z" id="svg_50" fill="#ffffff" fill-opacity="1"/>
<path d="M4017 793 c-11 -3 -16 -11 -13 -21 2 -9 12 -51 21 -92 9 -41 28 -106 43 -145 l27 -70 93 -3 92 -3 0 166 0 165 -49 0 -49 0 13 -43 c17 -58 25 -118 14 -111 -5 3 -9 16 -9 29 0 12 -11 43 -25 66 -24 43 -25 44 -24 14 1 -52 -37 -195 -52 -195 -8 0 -19 38 -19 66 0 12 7 27 15 34 10 8 12 17 6 24 -14 17 -14 28 -1 36 7 4 9 13 5 19 -5 9 -10 9 -21 0 -11 -9 -14 -9 -14 1 0 7 8 19 18 27 16 14 16 14 0 9 -13 -4 -18 0 -18 14 0 20 -14 23 -53 13z" id="svg_51" fill="#ffffff" fill-opacity="1"/>
<path d="M5085 763 c-4 -21 -18 -65 -31 -99 -18 -44 -24 -80 -24 -133 l0 -72 33 3 c24 2 32 8 31 21 -1 12 2 15 10 9 6 -5 18 -9 26 -9 8 -1 23 -4 33 -8 12 -5 17 -2 17 9 0 9 -7 19 -16 23 -14 5 -13 9 7 24 13 10 30 19 37 19 7 0 12 13 12 29 0 17 5 33 10 36 15 10 12 98 -5 122 -8 12 -31 27 -50 33 -19 6 -35 16 -35 21 0 5 -11 9 -24 9 -20 0 -25 -7 -31 -37z" id="svg_52" fill="#ffffff" fill-opacity="1"/>
<path d="M5388 782 c-5 -18 1 -315 7 -320 1 -2 37 -2 79 0 l76 3 -25 53 c-14 30 -23 58 -20 62 3 4 -4 19 -15 31 l-19 24 -1 -32 c0 -30 -21 -53 -48 -53 -5 0 -12 33 -16 72 -6 62 -4 75 11 85 9 7 25 13 35 13 14 0 18 -7 16 -32 -3 -39 25 -48 30 -10 3 22 51 52 82 52 14 0 13 -47 -2 -56 -7 -5 -4 -10 10 -15 16 -6 22 -17 22 -36 l-1 -28 -14 30 c-14 31 -19 22 -15 -29 2 -28 1 -28 -36 -21 -33 6 -36 5 -25 -9 7 -8 22 -18 32 -21 11 -4 19 -14 17 -23 -1 -9 2 -18 7 -19 6 -2 10 6 10 18 0 11 5 23 11 27 17 11 34 71 34 118 0 24 5 45 13 48 10 5 10 7 0 12 -7 3 -13 21 -13 40 0 27 -4 34 -20 34 -14 0 -20 -7 -20 -23 0 -20 -4 -23 -30 -19 -21 3 -30 10 -30 23 0 14 -7 19 -30 19 -27 0 -30 -3 -30 -30 0 -27 -3 -30 -30 -30 -25 0 -30 4 -30 24 0 30 -16 43 -22 18z" id="svg_53" fill="#ffffff" fill-opacity="1"/>
<path d="M1557 772 c-29 -32 -19 -93 14 -85 39 11 12 -32 -36 -57 -25 -13 -31 -24 -36 -60 -4 -25 -10 -60 -14 -77 l-7 -33 91 0 92 0 35 76 c20 42 33 78 30 82 -3 3 -18 12 -33 21 -22 14 -27 24 -28 63 -1 55 -25 88 -65 88 -15 0 -34 -8 -43 -18z" id="svg_54" fill="#ffffff" fill-opacity="1"/>
<path d="M1200 750 c-11 -11 -20 -26 -20 -32 1 -9 5 -7 13 3 21 28 51 31 65 8 12 -18 11 -23 -6 -35 -17 -11 -18 -20 -12 -56 5 -24 6 -46 4 -50 -12 -20 9 -28 32 -13 33 21 31 4 -7 -61 l-30 -54 85 0 86 0 0 33 c0 30 -5 36 -40 52 -62 28 -70 42 -58 99 13 62 1 90 -48 111 -45 19 -40 19 -64 -5z" id="svg_55" fill="#ffffff" fill-opacity="1"/>
<path d="M388 713 c-28 -4 -28 -5 -30 -86 -1 -45 -2 -96 -3 -114 -3 -50 5 -54 86 -51 l74 3 3 45 c2 33 -2 51 -15 65 -26 28 -16 80 14 80 13 0 22 5 21 10 0 6 -9 9 -20 7 -10 -2 -18 3 -19 10 0 7 -7 0 -15 -17 l-14 -30 6 43 7 42 -34 -1 c-19 -1 -46 -4 -61 -6z" id="svg_56" fill="#ffffff" fill-opacity="1"/>
<path d="M268 703 c-10 -2 -18 -11 -18 -19 0 -8 -5 -14 -11 -14 -6 0 -9 -9 -6 -20 4 -14 0 -20 -11 -20 -28 0 -62 12 -62 21 0 5 7 5 17 2 10 -4 14 -2 10 5 -4 6 -2 12 5 15 7 2 3 2 -9 0 -13 -2 -23 1 -23 7 0 11 -33 14 -44 3 -3 -4 -29 -6 -56 -4 -59 3 -61 -4 -30 -88 38 -99 58 -131 84 -131 19 0 24 6 29 38 4 20 4 49 2 64 -6 29 12 49 25 28 6 -9 10 -7 15 9 3 11 11 21 17 21 6 0 5 -6 -2 -15 -7 -9 -15 -45 -16 -80 l-3 -65 74 0 75 0 0 125 c0 123 0 125 -22 124 -13 -1 -31 -3 -40 -6z" id="svg_57" fill="#ffffff" fill-opacity="1"/>
<path d="M588 676 c-19 -14 -32 -102 -16 -112 5 -3 4 -12 -2 -19 -14 -17 -5 -35 16 -35 11 0 12 -4 4 -19 -15 -30 -14 -31 45 -31 54 0 55 0 55 29 0 16 -14 54 -32 85 -25 44 -35 53 -45 44 -10 -8 -17 -8 -25 0 -14 14 -1 33 17 25 16 -6 18 2 7 29 -6 14 -10 14 -24 4z" id="svg_58" fill="#ffffff" fill-opacity="1"/>
<path d="M113 425 c2 -5 15 -9 30 -7 33 4 67 -14 68 -36 0 -11 2 -12 6 -4 10 26 33 -10 33 -52 -1 -39 -2 -40 -16 -21 -9 12 -11 21 -4 23 5 2 7 8 4 14 -4 6 -10 5 -15 -3 -8 -12 -11 -11 -19 1 -5 8 -10 10 -10 4 0 -13 86 -96 116 -112 18 -10 19 -6 18 76 -1 48 -2 95 -3 104 -1 14 -16 17 -106 20 -67 2 -104 -1 -102 -7z" id="svg_59" fill="#ffffff" fill-opacity="1"/>
<path d="M1218 432 c-9 -2 -20 -14 -26 -27 -15 -34 -35 -33 -22 0 9 25 9 25 -39 25 l-49 0 -3 -37 c-2 -21 -3 -95 -1 -165 3 -143 -2 -135 82 -117 49 10 51 12 45 39 -4 18 -1 33 9 43 13 13 13 17 -4 32 -11 10 -20 21 -20 24 0 8 58 6 67 -2 3 -4 12 -2 20 4 9 8 13 8 13 1 0 -6 -12 -20 -27 -32 -23 -18 -25 -23 -13 -31 8 -5 27 -8 42 -6 16 2 28 -2 30 -9 2 -9 15 -6 46 8 l42 20 0 113 0 114 -89 3 c-49 2 -95 2 -103 0z" id="svg_60" fill="#ffffff" fill-opacity="1"/>
<path d="M1440 335 c0 -58 4 -95 10 -95 18 0 100 82 93 93 -3 5 -1 7 5 3 9 -6 82 71 82 88 0 3 -43 6 -95 6 l-95 0 0 -95z" id="svg_61" fill="#ffffff" fill-opacity="1"/>
<path d="M2290 327 l0 -104 34 -18 c30 -16 37 -17 52 -4 13 11 18 11 21 2 3 -7 11 -13 19 -13 9 0 13 4 9 9 -3 5 8 3 25 -5 17 -9 28 -21 24 -27 -3 -7 6 1 20 18 l25 29 51 -16 50 -16 0 124 0 124 -165 0 -165 0 0 -103z" id="svg_62" fill="#ffffff" fill-opacity="1"/>
<path d="M2650 265 l0 -165 71 0 c48 0 68 3 63 11 -3 6 -19 9 -35 7 -19 -3 -30 1 -34 10 -8 20 3 28 17 14 7 -7 25 -12 40 -12 16 0 28 -5 28 -12 0 -7 9 2 21 21 11 18 18 36 15 39 -4 3 -6 0 -6 -6 0 -7 -4 -12 -10 -12 -6 0 -10 26 -10 58 0 40 3 53 10 42 5 -8 10 -13 11 -10 6 41 6 60 -2 60 -6 0 -6 7 0 18 7 13 6 27 -5 47 -8 16 -12 35 -10 42 4 10 -13 13 -79 13 l-85 0 0 -165z" id="svg_63" fill="#ffffff" fill-opacity="1"/>
<path d="M2845 416 c14 -10 20 -27 20 -59 1 -38 7 -52 39 -87 34 -38 37 -47 33 -84 -2 -22 -8 -51 -12 -64 -7 -20 -4 -22 29 -22 l36 0 0 165 0 165 -82 0 c-73 0 -80 -2 -63 -14z" id="svg_64" fill="#ffffff" fill-opacity="1"/>
<path d="M3040 405 c-5 -14 -14 -25 -20 -25 -6 0 -10 -51 -10 -141 l0 -141 38 6 c20 4 61 14 90 22 53 15 59 28 19 44 -14 5 -28 26 -40 60 -17 47 -17 53 -3 75 68 104 121 123 155 56 l20 -39 -24 -6 c-14 -4 -25 -13 -25 -22 0 -8 5 -12 10 -9 6 3 10 1 10 -5 0 -7 8 -9 20 -5 23 7 24 0 9 -43 -8 -25 -16 -30 -38 -30 -15 1 -35 -3 -45 -9 -15 -8 -14 -11 8 -21 20 -9 28 -8 38 2 7 7 18 11 23 9 6 -1 25 6 43 17 32 19 32 21 32 95 0 47 -4 74 -10 70 -5 -3 -16 10 -24 30 l-15 35 -126 0 c-125 0 -126 0 -135 -25z" id="svg_65" fill="#ffffff" fill-opacity="1"/>
<path d="M3370 335 c0 -52 3 -95 6 -95 13 0 74 75 74 91 0 10 13 25 30 34 26 13 50 42 50 59 0 3 -36 6 -80 6 l-80 0 0 -95z" id="svg_66" fill="#ffffff" fill-opacity="1"/>
<path d="M4300 331 l0 -100 31 -22 c26 -18 35 -20 55 -10 32 14 34 14 34 -5 0 -13 3 -14 13 -5 8 6 16 9 18 7 13 -14 61 -14 66 0 7 18 30 18 82 -1 l41 -14 0 124 0 125 -170 0 -170 0 0 -99z" id="svg_67" fill="#ffffff" fill-opacity="1"/>
<path d="M4670 265 l0 -165 66 0 c61 0 67 2 95 32 30 33 40 60 15 39 -17 -14 -26 5 -26 55 0 25 4 34 17 34 9 0 13 3 10 6 -3 4 -2 15 4 25 5 11 6 19 1 19 -5 0 -7 13 -4 29 2 16 -3 39 -12 53 -9 14 -13 28 -9 31 3 4 -30 7 -75 7 l-82 0 0 -165z" id="svg_68" fill="#ffffff" fill-opacity="1"/>
<path d="M4863 412 c10 -11 17 -35 17 -60 0 -33 7 -48 35 -78 29 -30 35 -44 35 -80 0 -23 -4 -54 -10 -68 -9 -25 -8 -26 25 -26 l35 0 0 165 0 165 -77 0 c-73 0 -75 -1 -60 -18z" id="svg_69" fill="#ffffff" fill-opacity="1"/>
<path d="M5062 418 c-7 -7 -12 -18 -12 -25 0 -7 -4 -13 -10 -13 -6 0 -10 -54 -10 -141 l0 -141 38 6 c20 4 61 14 90 23 l52 16 -33 23 c-44 30 -67 101 -46 140 28 52 77 96 106 92 35 -4 82 -78 49 -78 -7 0 -19 -7 -27 -16 -10 -13 -10 -17 2 -25 8 -5 22 -7 32 -5 20 5 23 -20 5 -59 -15 -34 -5 -40 31 -19 30 18 31 21 31 86 0 56 -5 76 -25 108 l-25 40 -118 0 c-78 0 -122 -4 -130 -12z" id="svg_70" fill="#ffffff" fill-opacity="1"/>
<path d="M5387 338 c-3 -51 -3 -95 -1 -97 8 -9 84 81 84 99 0 10 10 20 23 24 12 3 30 19 40 36 l18 30 -79 0 -79 0 -6 -92z" id="svg_71" fill="#ffffff" fill-opacity="1"/>
<path d="M442 382 c-29 -23 -45 -84 -27 -109 24 -35 28 -64 10 -83 -16 -17 -14 -19 38 -38 56 -21 198 -54 205 -47 2 2 1 12 -2 22 -4 12 -39 34 -90 57 -70 31 -83 41 -79 57 6 23 -13 50 -32 43 -7 -3 -16 -1 -20 5 -3 7 2 11 14 11 12 0 21 5 21 10 0 6 -9 10 -20 10 -25 0 -27 36 -3 62 20 23 15 23 -15 0z" id="svg_72" fill="#ffffff" fill-opacity="1"/>
</g></g></svg>